<svg aria-hidden="true" style="position: absolute; width: 0; height: 0; overflow: hidden;" version="1.1" xmlns="http://www.w3.org/2000/svg" xmlns:xlink="http://www.w3.org/1999/xlink">
<defs>
<symbol id="icon-Linkedin" viewBox="0 0 32 32">
<path d="M27.312 0h-22.624c-2.588 0.003-4.685 2.1-4.688 4.688v22.624c0.003 2.588 2.1 4.685 4.688 4.688h22.624c2.588-0.003 4.685-2.1 4.688-4.688v-22.624c-0.003-2.588-2.1-4.685-4.688-4.688h-0zM11.312 25.376h-3.749v-13.127h3.749v13.127zM11.312 10.375h-3.749v-3.751h3.749v3.75zM24.437 25.375h-3.749v-7.5c-0.001-1.035-0.84-1.874-1.875-1.875h-0c-1.035 0.001-1.874 0.84-1.875 1.875v7.5h-3.75v-13.125h3.75v0.707c0.981-0.305 1.621-0.707 2.813-0.707 2.543 0.003 4.687 2.285 4.687 4.981v8.144z"></path>
</symbol>
<symbol id="icon-Group" viewBox="0 0 39 32">
<path d="M39.385 3.789c-1.353 0.607-2.924 1.055-4.568 1.266l-0.084 0.009c1.674-1.005 2.931-2.558 3.536-4.406l0.016-0.057c-1.474 0.889-3.189 1.567-5.017 1.937l-0.103 0.017c-1.48-1.574-3.575-2.555-5.9-2.555v0c-4.469 0-8.068 3.629-8.068 8.077 0 0.64 0.053 1.254 0.187 1.841-6.711-0.329-12.651-3.545-16.641-8.446-0.693 1.169-1.103 2.577-1.105 4.080v0.001c0.003 2.785 1.413 5.239 3.558 6.691l0.028 0.018c-1.344-0.037-2.596-0.4-3.688-1.014l0.040 0.021v0.089c0 3.923 2.799 7.182 6.469 7.933-0.617 0.169-1.326 0.267-2.057 0.267-0.021 0-0.042-0-0.063-0l0.003 0c-0.517 0-1.039-0.030-1.529-0.139 1.045 3.198 4.015 5.549 7.545 5.626-2.725 2.147-6.208 3.443-9.993 3.443-0.006 0-0.012 0-0.018 0h0.001c-0.662 0-1.298-0.030-1.933-0.111 3.577 2.306 7.815 3.623 12.386 3.623 14.859 0 22.981-12.307 22.981-22.976 0-0.357-0.013-0.702-0.030-1.043 1.603-1.138 2.949-2.558 4.047-4.192z"></path>
</symbol>
<symbol id="icon-insta" viewBox="0 0 32 32">
<path d="M23.168 0h-14.336c-4.87 0-8.832 3.962-8.832 8.831v14.337c0 4.87 3.962 8.832 8.831 8.832h14.337c4.87 0 8.832-3.962 8.832-8.831v-14.337c0-4.87-3.962-8.832-8.832-8.832zM29.161 23.169c-0.004 3.307-2.684 5.987-5.991 5.991h-14.337c-3.308-0.004-5.988-2.684-5.991-5.991v-14.337c0.004-3.307 2.684-5.987 5.991-5.991h14.336c3.307 0.004 5.987 2.684 5.991 5.991v14.336z"></path>
<path d="M16 7.755c-4.546 0-8.245 3.699-8.245 8.245 0 4.547 3.699 8.245 8.245 8.245s8.245-3.698 8.245-8.245c0-4.546-3.699-8.245-8.245-8.245zM16 21.406c-2.984-0.004-5.402-2.422-5.406-5.406v-0c0.004-2.984 2.422-5.402 5.406-5.406h0c2.985 0.003 5.403 2.421 5.407 5.406v0c-0.004 2.985-2.422 5.403-5.407 5.406h-0zM24.591 5.347c-0.574 0.002-1.093 0.235-1.47 0.61l0-0c-0.376 0.377-0.61 0.897-0.611 1.472v0c0 0.547 0.223 1.085 0.611 1.472 0.386 0.387 0.924 0.61 1.47 0.61 0.549 0 1.085-0.224 1.473-0.609 0.388-0.388 0.609-0.926 0.609-1.472-0.001-0.575-0.233-1.096-0.609-1.473l0 0c-0.377-0.376-0.897-0.609-1.472-0.61h-0z"></path>
</symbol>
<symbol id="icon-fb" viewBox="0 0 32 32">
<path d="M27.312 0h-22.624c-2.588 0.003-4.685 2.1-4.688 4.688v22.624c0.003 2.588 2.1 4.685 4.688 4.688h9.437v-11.312h-3.749v-5.627h3.749v-3.812c0.004-3.105 2.52-5.622 5.625-5.626h5.688v5.626h-5.687v3.812h5.687l-0.939 5.626h-4.749v11.313h7.563c2.587-0.004 4.684-2.101 4.687-4.688v-22.624c-0.003-2.588-2.1-4.685-4.688-4.688h-0z"></path>
</symbol>
</defs>
</svg>
